<?xml version="1.0" encoding="UTF-8" standalone="no"?>
<!DOCTYPE svg PUBLIC "-//W3C//DTD SVG 1.1//EN" "http://www.w3.org/Graphics/SVG/1.1/DTD/svg11.dtd">
<svg width="100%" height="100%" viewBox="0 0 712 712" version="1.1" xmlns="http://www.w3.org/2000/svg" xmlns:xlink="http://www.w3.org/1999/xlink" xml:space="preserve" xmlns:serif="http://www.serif.com/" style="fill-rule:evenodd;clip-rule:evenodd;stroke-linejoin:round;stroke-miterlimit:2;">
    <g transform="matrix(1,0,0,1,0,-1.42498)">
        <g transform="matrix(4.16667,0,0,4.16667,0,0)">
            <path d="M140.089,77.786C138.942,77.786 137.743,77.519 136.649,76.999C116.439,66.894 94.681,61.788 71.924,61.788C60.099,61.788 48.326,63.255 36.875,66.068C32.649,67.107 28.435,64.547 27.396,60.388C26.356,56.162 28.903,51.123 33.062,50.07C45.78,46.95 58.792,45.337 71.924,45.337C97.067,45.337 121.238,51.016 143.582,62.162C147.474,64.081 149.048,68.774 147.114,72.68C145.768,75.386 143.008,77.786 140.089,77.786ZM135.556,103.556C134.356,105.902 131.957,109.702 129.516,109.702C128.423,109.702 127.384,109.448 126.344,108.928C109.412,100.117 91.134,95.69 71.924,95.69C61.352,95.69 50.873,97.051 40.728,99.864C37.075,100.85 33.328,98.717 32.342,95.064C31.355,91.371 33.489,85.172 37.128,84.185C48.433,81.119 60.152,79.545 71.924,79.545C93.014,79.545 114.052,84.652 132.637,94.344C136.022,96.064 137.329,100.17 135.556,103.556ZM124.717,135.685C123.677,137.618 121.651,138.711 119.624,138.711C118.625,138.711 117.691,138.498 116.758,137.978C103.107,130.486 87.588,126.473 71.924,126.473C62.538,126.473 53.219,127.873 44.367,130.632C41.248,131.579 37.968,129.859 37.021,126.779C36.088,123.713 37.808,117.154 40.874,116.154C50.926,113.088 61.352,111.475 71.924,111.475C89.575,111.475 107.067,115.954 122.438,124.447C125.291,126.006 126.291,132.818 124.717,135.685ZM85.295,0.342C38.221,0.342 0,38.564 0,85.638C0,132.779 38.221,171 85.295,171C132.436,171 170.658,132.779 170.658,85.638C170.658,38.564 132.436,0.342 85.295,0.342Z" style="fill:white;fill-rule:nonzero;"/>
        </g>
    </g>
</svg>
