<?xml version="1.0" encoding="UTF-8" standalone="no"?>
<!DOCTYPE svg PUBLIC "-//W3C//DTD SVG 1.1//EN" "http://www.w3.org/Graphics/SVG/1.1/DTD/svg11.dtd">
<svg width="100%" height="100%" viewBox="0 0 3113 3113" version="1.1" xmlns="http://www.w3.org/2000/svg" xmlns:xlink="http://www.w3.org/1999/xlink" xml:space="preserve" xmlns:serif="http://www.serif.com/" style="fill-rule:evenodd;clip-rule:evenodd;stroke-linejoin:round;stroke-miterlimit:2;">
    <g transform="matrix(1,0,0,1,0,-0.037384)">
        <path d="M3112.69,1556.33C3112.69,2415.97 2415.82,3112.5 1556.3,3112.5C696.75,3112.5 0,2415.97 0,1556.33C0,696.683 696.75,0.037 1556.3,0.037C2415.82,0.037 3112.69,696.683 3112.69,1556.33ZM2453.6,1892.96C2453.6,2049.35 2326.87,2176.2 2170.26,2176.2L942.325,2176.2C785.937,2176.2 658.963,2049.35 658.963,1892.96L658.963,1219.7C658.963,1063.31 785.937,936.454 942.325,936.454L2170.26,936.454C2326.87,936.454 2453.6,1063.31 2453.6,1219.7L2453.6,1892.96ZM2039.25,1556.33L1389.87,2028.66L1389.87,1083.99L2039.25,1556.33Z" style="fill:white;"/>
    </g>
</svg>
