<svg xmlns="http://www.w3.org/2000/svg" xmlns:xlink="http://www.w3.org/1999/xlink" version="1.1" x="0px" y="0px" viewBox="-3 5 512 640" style="enable-background:new -3 5 512 512;" xml:space="preserve"><g><g><path d="M170,156v170c0,5.5,4.5,10,10,10h180c5.5,0,10-4.5,10-10v-30h30c5.5,0,10-4.5,10-10v-30h30c5.5,0,10-4.5,10-10V76.1    c0-5.5-4.5-10-10-10H260c-5.5,0-10,4.5-10,10v30h-30c-5.5,0-10,4.5-10,10v30h-30C174.5,146,170,150.5,170,156z M270,86.1h159.9    V236H270V86.1z M230,126h20v120c0,5.5,4.5,10,10,10h129.9v20H230V126z M190,166h20v120c0,5.5,4.5,10,10,10h130v20H190V166z"/><path d="M312.9,193.1c3.9,3.9,10.2,3.9,14.1,0s3.9-10.2,0-14.1l-12.9-13l12.9-12.9c3.9-3.9,3.9-10.2,0-14.1s-10.2-3.9-14.1,0    l-20,20c-3.9,3.9-3.9,10.2,0,14.1L312.9,193.1z"/><path d="M372.9,193.1c3.9,3.9,10.2,3.9,14.1,0l20-20c3.9-3.9,3.9-10.2,0-14.1l-20-20c-3.9-3.9-10.2-3.9-14.1,0s-3.9,10.2,0,14.1    l12.9,12.9l-12.9,13C369,182.9,369,189.2,372.9,193.1z"/><path d="M150,115.4V126h-10c-5.5,0-10,4.5-10,10s4.5,10,10,10h20c5.5,0,10-4.5,10-10v-16l6.4-5.4c4.7-4,4.7-11.3,0-15.3l-6.4-5.4    V76.1c0-5.5-4.5-10-10-10h-20c-5.5,0-10,4.5-10,10s4.5,10,10,10h10v12.5c0,5.5,4.2,8.1,4.5,8.4l-0.9,0.8    C151.3,109.7,150,112.5,150,115.4z"/><path d="M53.6,114.6L60,120v16c0,5.5,4.5,10,10,10h20c5.5,0,10-4.5,10-10s-4.5-10-10-10H80v-10.6c0-5.6-4.1-7.9-4.5-8.4    c0.4-0.5,4.5-2.9,4.5-8.4V86.1h10c5.5,0,10-4.5,10-10s-4.5-10-10-10H70c-5.5,0-10,4.5-10,10v17.8l-6.4,5.4    C48.9,103.3,48.9,110.6,53.6,114.6z"/><path d="M479.9,26.1H20.1c-5.5,0-10,4.5-10,10V416c0,5.5,4.5,10,10,10H200v60h-20c-5.5,0-10,4.5-10,10s4.5,10,10,10    c53.1,0,111.1,0,139.9,0c5.5,0,10-4.5,10-10s-4.5-10-10-10h-20v-60h179.9c5.5,0,10-4.5,10-10V36.1    C489.9,30.6,485.4,26.1,479.9,26.1z M469.9,46.1V356H30.1V46.1H469.9z M280,485.9h-60v-60h60V485.9z M30.1,406v-30h439.8v30    C384.2,406,115.9,406,30.1,406z"/><path d="M140,196H60c-7.1,0-11.9,7.1-9.3,13.7l40,100c3.3,8.3,15.2,8.4,18.6,0l40-100C151.9,203.2,147.1,196,140,196z M125.3,216    l-4,10.1c-1-0.1-41.4-0.1-42.4,0l-4-10.1H125.3z M100.1,279.1L86.8,246h26.4L100.1,279.1z"/></g></g><text x="-3" y="532" fill="#000000" font-size="5px" font-weight="bold" font-family="'Helvetica Neue', Helvetica, Arial-Unicode, Arial, Sans-serif">Created by Flatart</text><text x="-3" y="537" fill="#000000" font-size="5px" font-weight="bold" font-family="'Helvetica Neue', Helvetica, Arial-Unicode, Arial, Sans-serif">from the Noun Project</text></svg>