<?xml version="1.0" encoding="UTF-8" standalone="no"?>
<!DOCTYPE svg PUBLIC "-//W3C//DTD SVG 1.1//EN" "http://www.w3.org/Graphics/SVG/1.1/DTD/svg11.dtd">
<svg width="100%" height="100%" viewBox="0 0 834 678" version="1.1" xmlns="http://www.w3.org/2000/svg" xmlns:xlink="http://www.w3.org/1999/xlink" xml:space="preserve" xmlns:serif="http://www.serif.com/" style="fill-rule:evenodd;clip-rule:evenodd;stroke-linejoin:round;stroke-miterlimit:2;">
    <g transform="matrix(1,0,0,1,0,-1.93335)">
        <g transform="matrix(4.16667,0,0,4.16667,0,0)">
            <path d="M200,19.705C192.642,22.968 184.733,25.174 176.434,26.166C184.904,21.087 191.411,13.046 194.475,3.464C186.546,8.167 177.765,11.582 168.418,13.421C160.934,5.447 150.27,0.464 138.468,0.464C115.808,0.464 97.435,18.836 97.435,41.496C97.435,44.712 97.797,47.843 98.497,50.847C64.396,49.135 34.161,32.8 13.923,7.975C10.391,14.035 8.368,21.083 8.368,28.603C8.368,42.839 15.611,55.398 26.622,62.756C19.896,62.543 13.568,60.697 8.037,57.624C8.033,57.796 8.033,57.967 8.033,58.14C8.033,78.021 22.177,94.604 40.947,98.375C37.504,99.312 33.879,99.814 30.137,99.814C27.493,99.814 24.923,99.556 22.417,99.078C27.639,115.378 42.792,127.242 60.748,127.572C46.705,138.578 29.012,145.138 9.788,145.138C6.476,145.138 3.209,144.943 0,144.564C18.158,156.206 39.727,163 62.898,163C138.372,163 179.645,100.476 179.645,46.254C179.645,44.475 179.604,42.705 179.525,40.945C187.543,35.16 194.499,27.933 200,19.705Z" style="fill:white;fill-rule:nonzero;"/>
        </g>
    </g>
</svg>
